<svg width="52" height="52" viewBox="0 0 52 52" fill="none" xmlns="http://www.w3.org/2000/svg">
<g filter="url(#filter0_d_42_9698)">
<path d="M2.5 11C2.5 5.75329 6.75329 1.5 12 1.5H40C45.2467 1.5 49.5 5.75329 49.5 11V39C49.5 44.2467 45.2467 48.5 40 48.5H12C6.75329 48.5 2.5 44.2467 2.5 39V11Z" stroke="#EAECF0" stroke-opacity="0.2" shape-rendering="crispEdges"/>
<path d="M16 27.5001L25.6422 32.3212C25.7734 32.3868 25.839 32.4196 25.9078 32.4325C25.9687 32.4439 26.0313 32.4439 26.0922 32.4325C26.161 32.4196 26.2266 32.3868 26.3578 32.3212L36 27.5001M16 22.5001L25.6422 17.679C25.7734 17.6134 25.839 17.5806 25.9078 17.5677C25.9687 17.5562 26.0313 17.5562 26.0922 17.5677C26.161 17.5806 26.2266 17.6134 26.3578 17.679L36 22.5001L26.3578 27.3212C26.2266 27.3868 26.161 27.4196 26.0922 27.4325C26.0313 27.4439 25.9687 27.4439 25.9078 27.4325C25.839 27.4196 25.7734 27.3868 25.6422 27.3212L16 22.5001Z" stroke="white" stroke-width="2" stroke-linecap="round" stroke-linejoin="round"/>
</g>
<defs>
<filter id="filter0_d_42_9698" x="0" y="0" width="52" height="52" filterUnits="userSpaceOnUse" color-interpolation-filters="sRGB">
<feFlood flood-opacity="0" result="BackgroundImageFix"/>
<feColorMatrix in="SourceAlpha" type="matrix" values="0 0 0 0 0 0 0 0 0 0 0 0 0 0 0 0 0 0 127 0" result="hardAlpha"/>
<feOffset dy="1"/>
<feGaussianBlur stdDeviation="1"/>
<feComposite in2="hardAlpha" operator="out"/>
<feColorMatrix type="matrix" values="0 0 0 0 0.0627451 0 0 0 0 0.0941176 0 0 0 0 0.156863 0 0 0 0.05 0"/>
<feBlend mode="normal" in2="BackgroundImageFix" result="effect1_dropShadow_42_9698"/>
<feBlend mode="normal" in="SourceGraphic" in2="effect1_dropShadow_42_9698" result="shape"/>
</filter>
</defs>
</svg>
